<svg aria-hidden="true" xmlns="http://www.w3.org/2000/svg" style="width:0;height:0;position:absolute;overflow:hidden"><symbol fill="none" viewBox="0 0 24 25" id="be"><path fill-rule="evenodd" clip-rule="evenodd" d="M9.626 12.972c.293 0 .937.113.937.949 0 .835-.82.88-.937.88H8.28v-1.829h1.346ZM10.194 10.864c0 .621-.552.726-.718.726H8.26v-1.392h1.105c.11 0 .829.044.829.666ZM15.68 11.417c.428.003.684.104.885.279.202.174.322.453.362.803h-2.572c-.017-.564.63-1.087 1.326-1.082Z" fill="#F5F5F5"/><path fill-rule="evenodd" clip-rule="evenodd" d="M18.734.583a5.1 5.1 0 0 1 5.1 5.1v13.634a5.1 5.1 0 0 1-5.1 5.1H5.1A5.1 5.1 0 0 1 0 19.317V5.683a5.1 5.1 0 0 1 5.1-5.1h13.634Zm-4.475 7.72a.474.474 0 1 0 0 .947h2.844a.474.474 0 1 0 0-.948H14.26Zm-4.313 7.864c.296-.001 2.512-.089 2.512-2.132 0-1.319-.813-1.75-1.256-1.903.295-.152.79-.535.79-1.56 0-1.926-1.825-1.864-2.194-1.864h-3.4v7.459h3.548Zm8.465-2.22c.058-1.64-.289-3.749-2.773-3.749-.703 0-2.773.325-2.773 3.047 0 2.519 1.913 3.047 2.85 3.047 1.422 0 2.36-1 2.62-1.875h-1.47c-.21.23-.559.502-1.297.426-.92-.096-1.165-.947-1.165-.947l2.77.052h1.238Z" fill="#F5F5F5"/></symbol><symbol fill="none" viewBox="0 0 24 25" id="instagram"><path d="M6.998.5C3.14.5 0 3.642 0 7.501v10C0 21.36 3.142 24.5 7.001 24.5h10C20.86 24.5 24 21.358 24 17.499v-10C24 3.638 20.858.5 16.999.5h-10ZM19.2 4.34a.96.96 0 1 1 0 1.92.96.96 0 0 1 0-1.92ZM12 6.26a6.246 6.246 0 0 1 6.24 6.24A6.246 6.246 0 0 1 12 18.74a6.246 6.246 0 0 1-6.24-6.24A6.246 6.246 0 0 1 12 6.26Zm0 1.92a4.32 4.32 0 1 0 0 8.64 4.32 4.32 0 0 0 0-8.64Z" fill="#F5F5F5"/></symbol><symbol fill="none" viewBox="0 0 25 25" id="whatsapp"><path d="M12.5 1C6.159 1 1 6.159 1 12.5c0 1.98.512 3.927 1.482 5.645l-1.463 5.22a.5.5 0 0 0 .601.62l5.448-1.349A11.507 11.507 0 0 0 12.5 24C18.841 24 24 18.841 24 12.5S18.841 1 12.5 1Zm5.785 15.558c-.246.681-1.426 1.302-1.993 1.386-.509.075-1.153.107-1.86-.116a17.303 17.303 0 0 1-1.683-.614c-2.961-1.263-4.895-4.207-5.043-4.402-.148-.194-1.206-1.58-1.206-3.015 0-1.434.763-2.14 1.034-2.432.27-.292.59-.365.787-.365.197 0 .394.003.566.01.182.01.425-.068.665.501.246.584.836 2.019.909 2.165.074.146.123.316.025.511s-.147.316-.295.487c-.148.17-.31.38-.443.51-.148.146-.301.304-.13.596.173.292.765 1.246 1.643 2.019 1.128.993 2.079 1.301 2.374 1.447.295.146.467.121.64-.073.171-.195.737-.851.934-1.143.197-.291.393-.243.665-.146.27.097 1.722.802 2.017.948.295.146.492.219.566.34.074.121.074.705-.172 1.386Z" fill="#F5F5F5"/></symbol><symbol fill="none" viewBox="0 0 25 25" id="telegram"><path xmlns="http://www.w3.org/2000/svg" d="M12.5 1C18.852 1 24 6.149 24 12.5 24 18.852 18.852 24 12.5 24 6.149 24 1 18.852 1 12.5 1 6.149 6.149 1 12.5 1Zm3.967 16.188c.212-.65 1.203-7.117 1.325-8.392.037-.386-.085-.643-.324-.757-.289-.139-.717-.07-1.213.11-.681.245-9.387 3.942-9.89 4.156-.478.202-.929.423-.929.743 0 .225.134.351.502.483.383.136 1.348.429 1.917.586.548.151 1.173.02 1.523-.198.371-.23 4.652-3.095 4.96-3.346.307-.251.552.07.301.322-.251.251-3.19 3.104-3.577 3.498-.471.48-.137.977.179 1.176.36.227 2.953 1.966 3.343 2.245.39.279.787.405 1.149.405.363 0 .553-.477.734-1.032Z" fill="#F5F5F5"/></symbol></svg>