<svg width="222" height="63" viewBox="0 0 222 63" fill="none" xmlns="http://www.w3.org/2000/svg">
  <path d="M85.4334 28.4126C85.4578 28.4126 85.4578 28.4126 85.4822 28.437L85.5066 28.4615V29.4875C85.5066 29.512 85.5066 29.512 85.4822 29.5364C85.4822 29.5364 85.4578 29.5608 85.4334 29.5608H77.9439C77.4316 29.5608 76.9681 29.3654 76.6022 28.9989C76.2362 28.6325 76.0411 28.1927 76.0411 27.6553V24.8213C76.0411 24.3083 76.2362 23.8441 76.6022 23.4777C76.9681 23.1112 77.4072 22.9158 77.9439 22.9158H85.4334C85.4578 22.9158 85.4578 22.9158 85.4822 22.9402C85.4822 22.9402 85.5066 22.9646 85.5066 22.9891V24.0151C85.5066 24.0396 85.5066 24.0396 85.4822 24.0396C85.4822 24.0396 85.4578 24.064 85.4334 24.064H77.9439C77.7732 24.064 77.6512 24.1129 77.5292 24.235C77.4072 24.3572 77.3584 24.4793 77.3584 24.6259V27.8507C77.3584 27.9973 77.4072 28.1439 77.5292 28.2416C77.6512 28.3637 77.7732 28.4126 77.9439 28.4126H85.4334Z" fill="url(#paint0_linear_1_195)"/>
  <path d="M98.2655 25.432C98.2655 25.8229 98.1679 26.1649 97.9483 26.4825C97.7532 26.8001 97.4604 27.02 97.1433 27.1666L97.1677 27.2155L98.2167 29.4386C98.2167 29.463 98.2167 29.463 98.2167 29.4875C98.2167 29.5119 98.1923 29.5119 98.1679 29.5119H96.8018C96.7774 29.5119 96.753 29.5119 96.753 29.4875L95.7283 27.3376H90.0442V29.4875C90.0442 29.5119 90.0442 29.5119 90.0198 29.5363C90.0198 29.5363 89.9954 29.5608 89.971 29.5608H88.7512C88.7268 29.5608 88.7268 29.5608 88.7024 29.5363C88.7024 29.5363 88.678 29.5119 88.678 29.4875V22.8913C88.678 22.8669 88.678 22.8669 88.7024 22.8424C88.7024 22.8424 88.7268 22.818 88.7512 22.818H96.3626C96.8993 22.818 97.3385 23.0134 97.7044 23.3799C98.0703 23.7463 98.2655 24.2105 98.2655 24.7236V25.432ZM90.0686 26.1894H96.3626C96.509 26.1894 96.6554 26.1405 96.753 26.0184C96.8749 25.8962 96.9237 25.7741 96.9237 25.603V24.5525C96.9237 24.406 96.8749 24.2594 96.753 24.1617C96.631 24.0639 96.509 23.9906 96.3626 23.9906H90.0686V26.1894Z" fill="url(#paint1_linear_1_195)"/>
  <path d="M102.657 25.6031H109.853C109.878 25.6031 109.878 25.6031 109.902 25.6275C109.902 25.6275 109.927 25.652 109.927 25.6764V26.7025C109.927 26.7269 109.927 26.7269 109.902 26.7513C109.902 26.7513 109.878 26.7758 109.853 26.7758H102.657V27.8263C102.657 27.9728 102.705 28.1194 102.827 28.2416C102.949 28.3637 103.071 28.4126 103.242 28.4126H110.805C110.829 28.4126 110.829 28.4126 110.854 28.437C110.854 28.437 110.878 28.4615 110.878 28.4859V29.512C110.878 29.5364 110.878 29.5364 110.854 29.5608C110.854 29.5608 110.829 29.5852 110.805 29.5852H103.242C102.705 29.5852 102.266 29.3898 101.9 29.0234C101.534 28.6569 101.339 28.1927 101.339 27.6797V24.8213C101.339 24.2839 101.534 23.8441 101.9 23.4777C102.266 23.1112 102.73 22.9158 103.242 22.9158H110.805C110.829 22.9158 110.829 22.9158 110.854 22.9402C110.854 22.9402 110.878 22.9646 110.878 22.9891V24.0151C110.878 24.0396 110.878 24.0396 110.854 24.064C110.854 24.064 110.829 24.0884 110.805 24.0884H103.242C103.071 24.0884 102.949 24.1373 102.827 24.2594C102.705 24.3816 102.657 24.5037 102.657 24.6748V25.6031Z" fill="url(#paint2_linear_1_195)"/>
  <path d="M113.83 24.748C113.83 24.2105 114.123 23.7708 114.489 23.4043C114.855 23.0379 115.318 22.8424 115.83 22.8424H121.539C122.076 22.8424 122.515 23.0379 122.881 23.4043C123.247 23.7708 123.442 24.2349 123.442 24.748V29.463C123.442 29.4875 123.442 29.4875 123.417 29.5119C123.417 29.5119 123.393 29.5363 123.369 29.5363H122.149C122.124 29.5363 122.124 29.5363 122.1 29.5119C122.1 29.5119 122.076 29.4875 122.076 29.463V27.3132H115.196V29.463C115.196 29.4875 115.196 29.4875 115.172 29.5119C115.172 29.5119 115.147 29.5363 115.123 29.5363H113.903C113.879 29.5363 113.879 29.5363 113.854 29.5119C113.854 29.5119 113.83 29.4875 113.83 29.463V24.748ZM122.124 26.1894V24.577C122.124 24.4059 122.076 24.2838 121.954 24.1616C121.832 24.0395 121.71 23.9906 121.539 23.9906H115.83C115.66 23.9906 115.538 24.0395 115.416 24.1616C115.294 24.2838 115.245 24.4059 115.245 24.577V26.1894H122.124Z" fill="url(#paint3_linear_1_195)"/>
  <path d="M126.491 22.9443C126.449 22.8913 126.467 22.8424 126.491 22.818C126.491 22.818 126.564 22.818 126.589 22.818H136.005C136.03 22.818 136.03 22.818 136.054 22.8424C136.079 22.8669 136.079 22.8669 136.079 22.8913V23.9174C136.079 23.9418 136.079 23.9418 136.054 23.9662C136.03 23.9906 136.03 23.9906 136.005 23.9906H131.956V29.463C131.956 29.4875 131.956 29.4875 131.931 29.5119C131.931 29.5119 131.907 29.5363 131.883 29.5363H130.663C130.638 29.5363 130.638 29.5363 130.614 29.5119C130.614 29.5119 130.59 29.4875 130.59 29.463V23.9906H126.54C126.516 23.9906 126.516 23.9906 126.491 23.9662C126.491 23.9662 126.467 23.9418 126.467 23.9174V22.8913L126.491 22.9443Z" fill="url(#paint4_linear_1_195)"/>
  <path d="M140.445 29.463C140.445 29.4875 140.445 29.4875 140.421 29.5119C140.421 29.5119 140.397 29.5363 140.372 29.5363H139.152C139.128 29.5363 139.128 29.5363 139.104 29.5119C139.104 29.5119 139.079 29.4875 139.079 29.463V22.8913C139.079 22.8669 139.079 22.8669 139.104 22.8424C139.104 22.8424 139.128 22.818 139.152 22.818H140.372C140.397 22.818 140.397 22.818 140.421 22.8424C140.445 22.8669 140.445 22.8669 140.445 22.8913V29.463Z" fill="url(#paint5_linear_1_195)"/>
  <path d="M151.692 22.8913C151.692 22.8669 151.692 22.8669 151.716 22.8424C151.716 22.818 151.741 22.818 151.765 22.818H152.985C153.009 22.818 153.009 22.818 153.034 22.8424C153.034 22.8669 153.058 22.8669 153.058 22.8913V26.0184C153.058 26.4825 152.838 26.849 152.424 27.1666L148.886 29.3653C148.472 29.5852 148.081 29.5852 147.667 29.3653L144.129 27.1666C143.715 26.8734 143.495 26.4825 143.495 26.0184V22.8913C143.495 22.8669 143.495 22.8669 143.519 22.8424C143.519 22.818 143.544 22.818 143.568 22.818H144.788C144.812 22.818 144.812 22.818 144.837 22.8424C144.837 22.8669 144.861 22.8669 144.861 22.8913V25.7008C144.861 25.8962 144.959 26.0672 145.129 26.1894L148.081 28.0461C148.203 28.1194 148.35 28.1194 148.472 28.0461L151.448 26.1894C151.619 26.0672 151.716 25.8962 151.716 25.7008V22.8913H151.692Z" fill="url(#paint6_linear_1_195)"/>
  <path d="M157.425 25.6031H164.622C164.646 25.6031 164.646 25.6031 164.67 25.6275C164.67 25.6275 164.695 25.652 164.695 25.6764V26.7025C164.695 26.7269 164.695 26.7269 164.67 26.7513C164.67 26.7513 164.646 26.7758 164.622 26.7758H157.425V27.8263C157.425 27.9728 157.474 28.1194 157.596 28.2416C157.718 28.3637 157.84 28.4126 158.01 28.4126H165.573C165.597 28.4126 165.597 28.4126 165.622 28.437C165.622 28.437 165.646 28.4615 165.646 28.4859V29.512C165.646 29.5364 165.646 29.5364 165.622 29.5608C165.622 29.5608 165.597 29.5852 165.573 29.5852H158.01C157.474 29.5852 157.034 29.3898 156.669 29.0234C156.303 28.6569 156.107 28.1927 156.107 27.6797V24.8213C156.107 24.2839 156.303 23.8441 156.669 23.4777C157.034 23.1112 157.498 22.9158 158.01 22.9158H165.573C165.597 22.9158 165.597 22.9158 165.622 22.9402C165.622 22.9402 165.646 22.9646 165.646 22.9891V24.0151C165.646 24.0396 165.646 24.0396 165.622 24.064C165.622 24.064 165.597 24.0884 165.573 24.0884H158.01C157.84 24.0884 157.718 24.1373 157.596 24.2594C157.474 24.3816 157.425 24.5037 157.425 24.6748V25.6031Z" fill="url(#paint7_linear_1_195)"/>
  <path d="M97.558 34.7888H72.8452C72.211 34.7888 71.6743 34.569 71.2351 34.1048C70.796 33.665 70.5764 33.1276 70.5764 32.5168V19.7153C70.5764 19.1046 70.796 18.5671 71.2351 18.1273C71.6743 17.6876 72.211 17.4433 72.8452 17.4433H97.558C97.6312 17.4433 97.68 17.4189 97.7288 17.37C97.7775 17.3211 97.8019 17.2723 97.8019 17.2234V13.1924C97.8019 13.1191 97.7775 13.0703 97.7288 13.0214C97.68 12.9726 97.6312 12.9481 97.558 12.9481H72.8452C70.7472 12.9481 68.9907 13.681 67.527 15.1468C66.0633 16.6127 65.3314 18.3961 65.3314 20.4727V31.7595C65.3314 33.8605 66.0633 35.6195 67.527 37.0853C68.9907 38.5511 70.7716 39.284 72.8452 39.284H97.558C97.6312 39.284 97.68 39.2596 97.7288 39.2107C97.7775 39.1619 97.8019 39.113 97.8019 39.0397V34.9843C97.8019 34.9354 97.7775 34.8865 97.7288 34.8377C97.68 34.8133 97.6068 34.7888 97.558 34.7888Z" fill="#2B2B2B"/>
  <path d="M109.219 19.7154C109.219 19.1047 109.439 18.5672 109.878 18.1275C110.317 17.6877 110.854 17.4434 111.464 17.4434H130.273C130.907 17.4434 131.444 17.6633 131.883 18.1275C132.322 18.5672 132.541 19.1047 132.541 19.7154V21.0102H137.811V20.4972C137.811 18.3962 137.079 16.6372 135.615 15.1714C134.151 13.7056 132.371 12.9727 130.297 12.9727H111.488C109.414 12.9727 107.658 13.7056 106.17 15.1714C104.706 16.6372 103.95 18.4206 103.95 20.4972V21.0102H109.219V19.7154Z" fill="#2B2B2B"/>
  <path d="M132.541 32.5169C132.541 33.1277 132.322 33.6651 131.883 34.1049C131.444 34.5446 130.907 34.7889 130.273 34.7889H111.464C110.854 34.7889 110.317 34.5691 109.878 34.1049C109.439 33.6651 109.219 33.1277 109.219 32.5169V31.4908H103.95V31.7596C103.95 33.8606 104.682 35.6196 106.17 37.0854C107.633 38.5512 109.414 39.2841 111.488 39.2841H130.297C132.395 39.2841 134.151 38.5512 135.615 37.0854C137.079 35.6196 137.811 33.8362 137.811 31.7596V31.4908H132.541V32.5169Z" fill="#2B2B2B"/>
  <path d="M168.891 12.9482H144.202C144.154 12.9482 144.105 12.9727 144.056 13.0215C144.007 13.0704 143.983 13.1193 143.983 13.1925V21.0102H149.252V17.4434H168.915C169.55 17.4434 170.086 17.6633 170.525 18.1275C170.964 18.5672 171.184 19.1047 171.184 19.7154V32.5169C171.184 33.1277 170.964 33.6652 170.525 34.1049C170.086 34.5446 169.55 34.7889 168.915 34.7889H149.252V31.4909H143.983V39.0398C143.983 39.1131 144.007 39.162 144.056 39.2108C144.105 39.2597 144.154 39.2841 144.202 39.2841H168.915C171.013 39.2841 172.77 38.5512 174.233 37.0854C175.697 35.6196 176.429 33.8362 176.429 31.7596V20.4728C176.429 18.3718 175.697 16.6128 174.233 15.147C172.745 13.6812 170.989 12.9482 168.891 12.9482Z" fill="#2B2B2B"/>
  <path d="M188.505 18.1275C188.944 17.6877 189.481 17.4434 190.115 17.4434H214.828C214.901 17.4434 214.95 17.419 214.999 17.3701C215.047 17.3213 215.072 17.2724 215.072 17.2235V13.1925C215.072 13.1193 215.047 13.0704 214.999 13.0215C214.95 12.9727 214.901 12.9482 214.828 12.9482H190.115C188.017 12.9482 186.261 13.6812 184.797 15.147C183.333 16.6128 182.601 18.3962 182.601 20.4728V31.7596C182.601 33.8606 183.333 35.6196 184.797 37.0854C186.261 38.5512 188.041 39.2841 190.115 39.2841H214.828C214.901 39.2841 214.95 39.2597 214.999 39.2108C215.047 39.162 215.072 39.1131 215.072 39.0398V34.9844C215.072 34.9355 215.047 34.8867 214.999 34.8378C214.95 34.7889 214.901 34.7645 214.828 34.7645H190.115C189.481 34.7645 188.944 34.5446 188.505 34.0805C188.066 33.6407 187.846 33.1033 187.846 32.4925V28.3638H211.046C211.12 28.3638 211.168 28.3393 211.217 28.2905C211.266 28.2416 211.29 28.1928 211.29 28.1195V24.0885C211.29 24.0152 211.266 23.9663 211.217 23.9175C211.168 23.8686 211.12 23.8442 211.046 23.8442H187.846V19.7154C187.846 19.1047 188.066 18.5672 188.505 18.1275Z" fill="#2B2B2B"/>
  <path d="M66.7708 48.9586C66.3804 48.9586 66.0389 48.812 65.7461 48.5433C65.4534 48.2745 65.3314 47.9081 65.3314 47.5172V43.9503C65.3314 43.9503 65.3314 43.9259 65.3558 43.9259L65.3802 43.9015H66.3072C66.3316 43.9015 66.3316 43.9015 66.3316 43.9259L66.356 43.9503V47.6638C66.356 47.7859 66.4048 47.8836 66.478 47.9814C66.5512 48.0546 66.6732 48.1035 66.7951 48.1035H68.6004V43.9503C68.6004 43.9503 68.6004 43.9259 68.6248 43.9259L68.6492 43.9015H69.5763C69.6007 43.9015 69.6006 43.9015 69.6006 43.9259L69.625 43.9503V48.1035H71.4303C71.5523 48.1035 71.6499 48.0546 71.7475 47.9814C71.845 47.9081 71.8694 47.7859 71.8694 47.6638V43.9503C71.8694 43.9503 71.8694 43.9259 71.8938 43.9259L71.9182 43.9015H72.8453C72.8453 43.9015 72.8697 43.9015 72.8697 43.9259L72.8941 43.9503V47.5172C72.8941 47.9081 72.7477 48.2501 72.4793 48.5433C72.1866 48.8364 71.845 48.9586 71.4547 48.9586H66.7708Z" fill="#2B2B2B"/>
  <path d="M76.9437 46.0025H82.384C82.4084 46.0025 82.4084 46.0025 82.4084 46.0269L82.4328 46.0513V46.8331C82.4328 46.8575 82.4328 46.8575 82.4084 46.8575L82.384 46.882H76.9437V47.6882C76.9437 47.8103 76.9925 47.908 77.0657 48.0058C77.1389 48.1035 77.2609 48.1279 77.3829 48.1279H83.1158C83.1402 48.1279 83.1402 48.1279 83.1402 48.1523L83.1646 48.1768V48.9585C83.1646 48.983 83.1646 48.983 83.1402 48.983L83.1158 49.0074H77.3829C76.9925 49.0074 76.651 48.8608 76.3582 48.5921C76.0655 48.2989 75.9435 47.9569 75.9435 47.566V45.3917C75.9435 45.0008 76.0899 44.6588 76.3582 44.3656C76.651 44.0725 76.9925 43.9503 77.3829 43.9503H83.1158C83.1402 43.9503 83.1402 43.9503 83.1402 43.9747L83.1646 43.9992V44.781C83.1646 44.781 83.1646 44.8054 83.1402 44.8054L83.1158 44.8298H77.3829C77.2609 44.8298 77.1633 44.8787 77.0657 44.952C76.9925 45.0497 76.9437 45.1474 76.9437 45.2696V46.0025Z" fill="#2B2B2B"/>
  <path d="M93.484 45.3429V45.4162C93.484 45.8071 93.3376 46.1491 93.0692 46.4178C93.3376 46.6866 93.484 47.0286 93.484 47.4195V47.4928C93.484 47.8837 93.3376 48.2257 93.0692 48.5189C92.8009 48.812 92.4349 48.9342 92.0446 48.9342H86.3116C86.2872 48.9342 86.2873 48.9342 86.2873 48.9097L86.2629 48.8853V43.9015C86.2629 43.8771 86.2629 43.8771 86.2873 43.8771L86.3116 43.8527H92.0446C92.4349 43.8527 92.7765 43.9992 93.0692 44.268C93.3376 44.61 93.484 44.952 93.484 45.3429ZM87.2631 44.781V46.0025H92.0202C92.1422 46.0025 92.2398 45.9537 92.3374 45.8804C92.4349 45.7827 92.4593 45.6849 92.4593 45.5628V45.1963C92.4593 45.0742 92.4105 44.9765 92.3374 44.9032C92.2398 44.8299 92.1422 44.781 92.0202 44.781H87.2631ZM92.4593 47.6638V47.2973C92.4593 47.1752 92.4105 47.0775 92.3374 46.9797C92.2398 46.9065 92.1422 46.8576 92.0202 46.8576H87.2631V48.0791H92.0202C92.1422 48.0791 92.2398 48.0302 92.3374 47.957C92.4349 47.8837 92.4593 47.7859 92.4593 47.6638Z" fill="#2B2B2B"/>
  <path d="M107.414 43.9015C107.804 43.9015 108.146 44.0481 108.438 44.3168C108.731 44.61 108.853 44.952 108.853 45.3429V47.5172C108.853 47.9081 108.707 48.2501 108.438 48.5433C108.146 48.8364 107.804 48.9586 107.414 48.9586H101.681C101.681 48.9586 101.656 48.9586 101.656 48.9341L101.632 48.9097V43.9503C101.632 43.9259 101.632 43.9259 101.656 43.9259L101.681 43.9015H107.414ZM107.829 45.1963C107.829 45.0741 107.78 44.9764 107.707 44.8787C107.633 44.781 107.511 44.7566 107.389 44.7566H102.632V48.0791H107.389C107.511 48.0791 107.609 48.0302 107.707 47.9569C107.78 47.8592 107.829 47.7615 107.829 47.6393V45.1963Z" fill="#2B2B2B"/>
  <path d="M112.976 46.0025H118.416C118.441 46.0025 118.441 46.0025 118.441 46.0269C118.441 46.0513 118.465 46.0513 118.465 46.0513V46.8331C118.465 46.8575 118.465 46.8575 118.441 46.8575L118.416 46.882H112.976V47.6882C112.976 47.8103 113.025 47.908 113.098 48.0058C113.171 48.1035 113.293 48.1279 113.415 48.1279H119.148C119.172 48.1279 119.172 48.1279 119.172 48.1523L119.197 48.1768V48.9585C119.197 48.983 119.197 48.983 119.172 48.983L119.148 49.0074H113.415C113.025 49.0074 112.683 48.8608 112.39 48.5921C112.098 48.3233 111.976 47.9569 111.976 47.566V45.3917C111.976 45.0008 112.122 44.6588 112.39 44.3656C112.683 44.0725 113.025 43.9503 113.415 43.9503H119.148C119.172 43.9503 119.172 43.9503 119.172 43.9747L119.197 43.9992V44.781C119.197 44.781 119.197 44.8054 119.172 44.8054L119.148 44.8298H113.415C113.293 44.8298 113.196 44.8787 113.098 44.952C113.025 45.0497 112.976 45.1474 112.976 45.2696V46.0025Z" fill="#2B2B2B"/>
  <path d="M123.295 45.5628C123.295 45.6849 123.344 45.7826 123.417 45.8803C123.491 45.9536 123.613 46.0025 123.71 46.0025H128.053C128.443 46.0025 128.784 46.1491 129.077 46.4178C129.37 46.711 129.492 47.053 129.492 47.4439V47.5172C129.492 47.9081 129.345 48.2501 129.077 48.5433C128.784 48.8364 128.467 48.9586 128.053 48.9586H122.612C122.612 48.9586 122.588 48.9586 122.588 48.9341L122.563 48.9097V48.1279C122.563 48.1035 122.563 48.1035 122.588 48.1035L122.612 48.0791H128.053C128.174 48.0791 128.272 48.0302 128.345 47.9569C128.418 47.8836 128.467 47.7615 128.467 47.6638V47.2973C128.467 47.1752 128.418 47.0774 128.345 46.9797C128.272 46.882 128.15 46.8576 128.053 46.8576H123.71C123.32 46.8576 122.978 46.711 122.685 46.4422C122.393 46.1491 122.271 45.8315 122.271 45.4162V45.3429C122.271 44.952 122.417 44.61 122.685 44.3168C122.978 44.0236 123.295 43.9015 123.71 43.9015H129.15C129.15 43.9015 129.175 43.9015 129.175 43.9259L129.199 43.9503V44.7321C129.199 44.7321 129.199 44.7566 129.175 44.7566L129.15 44.781H123.71C123.588 44.781 123.491 44.8298 123.417 44.9031C123.344 44.9764 123.295 45.0986 123.295 45.2207V45.5628Z" fill="#2B2B2B"/>
  <path d="M133.615 48.9341C133.615 48.9341 133.615 48.9586 133.59 48.9586L133.566 48.983H132.639C132.639 48.983 132.614 48.983 132.614 48.9586L132.59 48.9341V43.9503C132.59 43.9259 132.59 43.9259 132.614 43.9259L132.639 43.9015H133.566C133.59 43.9015 133.59 43.9015 133.59 43.9259L133.615 43.9503V48.9341Z" fill="#2B2B2B"/>
  <path d="M142.495 48.1035C142.617 48.1035 142.714 48.0546 142.812 47.9813C142.909 47.8836 142.934 47.7859 142.934 47.6637V46.4911C142.934 46.4667 142.934 46.4667 142.958 46.4667L142.983 46.4422H143.91C143.934 46.4422 143.934 46.4422 143.934 46.4667L143.958 46.4911V47.6637C143.958 48.0302 143.836 48.3234 143.568 48.5921C143.324 48.8364 143.007 48.983 142.641 48.983H138.177C137.786 48.983 137.445 48.8364 137.152 48.5677C136.859 48.2745 136.737 47.9325 136.737 47.5416V45.3673C136.737 44.9764 136.884 44.6344 137.152 44.3412C137.445 44.0481 137.786 43.9259 138.177 43.9259H143.91C143.934 43.9259 143.934 43.9259 143.934 43.9503L143.958 43.9748V44.7565C143.958 44.7565 143.958 44.781 143.934 44.781L143.91 44.8054H138.177C138.055 44.8054 137.957 44.8543 137.859 44.9275C137.786 45.0253 137.738 45.123 137.738 45.2451V47.7126C137.738 47.8348 137.786 47.9325 137.859 48.0302C137.933 48.1279 138.055 48.1523 138.177 48.1523H142.495V48.1035Z" fill="#2B2B2B"/>
  <path d="M147.057 45.3429C147.057 44.952 147.203 44.61 147.471 44.3168C147.764 44.0236 148.106 43.9015 148.496 43.9015H152.814C153.204 43.9015 153.546 44.0481 153.839 44.3168C154.131 44.61 154.253 44.952 154.253 45.3429V48.9097C154.253 48.9097 154.253 48.9341 154.229 48.9341L154.205 48.9586H153.278C153.253 48.9586 153.253 48.9586 153.253 48.9341L153.229 48.9097V45.1963C153.229 45.0741 153.18 44.9764 153.107 44.8787C153.034 44.781 152.912 44.7566 152.79 44.7566H148.472C148.35 44.7566 148.252 44.8054 148.155 44.8787C148.057 44.952 148.033 45.0741 148.033 45.1963V48.9097C148.033 48.9097 148.033 48.9341 148.008 48.9341L147.984 48.9586H147.106C147.081 48.9586 147.081 48.9586 147.081 48.9341L147.057 48.9097V45.3429Z" fill="#2B2B2B"/>
  <path d="M163.426 45.5628C163.426 45.6849 163.475 45.7826 163.548 45.8803C163.621 45.9536 163.743 46.0025 163.841 46.0025H168.183C168.574 46.0025 168.915 46.1491 169.208 46.4178C169.501 46.711 169.623 47.053 169.623 47.4439V47.5172C169.623 47.9081 169.476 48.2501 169.208 48.5433C168.915 48.8364 168.598 48.9586 168.183 48.9586H162.743C162.743 48.9586 162.719 48.9586 162.719 48.9341L162.694 48.9097V48.1279C162.694 48.1035 162.694 48.1035 162.719 48.1035L162.743 48.0791H168.183C168.305 48.0791 168.403 48.0302 168.476 47.9569C168.549 47.8836 168.598 47.7615 168.598 47.6638V47.2973C168.598 47.1752 168.549 47.0774 168.476 46.9797C168.403 46.882 168.281 46.8576 168.183 46.8576H163.841C163.45 46.8576 163.109 46.711 162.816 46.4422C162.523 46.1491 162.401 45.8315 162.401 45.4162V45.3429C162.401 44.952 162.548 44.61 162.816 44.3168C163.109 44.0236 163.426 43.9015 163.841 43.9015H169.305C169.305 43.9015 169.33 43.9015 169.33 43.9259L169.354 43.9503V44.7321C169.354 44.7321 169.354 44.7566 169.33 44.7566L169.305 44.781H163.865C163.743 44.781 163.646 44.8298 163.572 44.9031C163.499 44.9764 163.45 45.0986 163.45 45.2207V45.5628H163.426Z" fill="#2B2B2B"/>
  <path d="M172.745 43.9503C172.745 43.9259 172.745 43.9259 172.77 43.9259L172.794 43.9015H179.918C179.918 43.9015 179.942 43.9015 179.942 43.9259L179.966 43.9503V44.7321C179.966 44.7321 179.966 44.7566 179.942 44.7566L179.918 44.781H176.868V48.9341C176.868 48.9586 176.868 48.9586 176.844 48.9586L176.819 48.983H175.892C175.868 48.983 175.868 48.983 175.868 48.9586L175.843 48.9341V44.781H172.794C172.794 44.781 172.77 44.781 172.77 44.7566L172.745 44.7321V43.9503Z" fill="#2B2B2B"/>
  <path d="M190.286 47.5172C190.286 47.9081 190.139 48.2501 189.871 48.5433C189.578 48.8364 189.237 48.9586 188.846 48.9586H184.528C184.138 48.9586 183.796 48.812 183.504 48.5433C183.211 48.2501 183.089 47.9325 183.089 47.5172V43.9503C183.089 43.9259 183.089 43.9259 183.113 43.9259L183.138 43.9015H184.065C184.065 43.9015 184.089 43.9015 184.089 43.9259L184.114 43.9503V47.6638C184.114 47.7859 184.162 47.8836 184.236 47.9814C184.333 48.0546 184.431 48.1035 184.553 48.1035H188.871C188.993 48.1035 189.09 48.0546 189.188 47.9814C189.261 47.9081 189.31 47.7859 189.31 47.6638V43.9503C189.31 43.9259 189.31 43.9259 189.334 43.9259C189.359 43.9259 189.359 43.9015 189.359 43.9015H190.286C190.31 43.9015 190.31 43.9015 190.31 43.9259L190.334 43.9503V47.5172H190.286Z" fill="#2B2B2B"/>
  <path d="M199.166 43.9015C199.556 43.9015 199.898 44.0481 200.19 44.3168C200.483 44.61 200.605 44.952 200.605 45.3429V47.5172C200.605 47.9081 200.459 48.2501 200.19 48.5433C199.898 48.8364 199.556 48.9586 199.166 48.9586H193.433C193.433 48.9586 193.408 48.9586 193.408 48.9341L193.384 48.9097V43.9503C193.384 43.9259 193.384 43.9259 193.408 43.9259L193.433 43.9015H199.166ZM199.605 45.1963C199.605 45.0741 199.556 44.9764 199.483 44.8787C199.41 44.781 199.288 44.7566 199.166 44.7566H194.409V48.0791H199.166C199.288 48.0791 199.385 48.0302 199.483 47.9569C199.556 47.8592 199.605 47.7615 199.605 47.6393V45.1963Z" fill="#2B2B2B"/>
  <path d="M204.728 48.9341C204.728 48.9341 204.728 48.9586 204.703 48.9586L204.679 48.983H203.752C203.752 48.983 203.728 48.983 203.728 48.9586L203.703 48.9341V43.9503C203.703 43.9259 203.703 43.9259 203.728 43.9259L203.752 43.9015H204.679C204.703 43.9015 204.703 43.9015 204.703 43.9259L204.728 43.9503V48.9341Z" fill="#2B2B2B"/>
  <path d="M213.608 43.9015C213.998 43.9015 214.34 44.0481 214.633 44.3168C214.925 44.61 215.047 44.952 215.047 45.3429V47.5172C215.047 47.9081 214.901 48.2501 214.633 48.5433C214.364 48.8364 213.998 48.9586 213.608 48.9586H209.29C208.9 48.9586 208.558 48.812 208.265 48.5433C207.973 48.2501 207.851 47.9081 207.851 47.5172V45.3429C207.851 44.952 207.997 44.61 208.265 44.3168C208.558 44.0236 208.9 43.9015 209.29 43.9015H213.608ZM214.047 45.1963C214.047 45.0741 213.998 44.9764 213.925 44.8787C213.852 44.781 213.73 44.7566 213.608 44.7566H209.29C209.168 44.7566 209.07 44.8054 208.973 44.8787C208.875 44.9764 208.851 45.0741 208.851 45.1963V47.6638C208.851 47.7859 208.9 47.8836 208.973 47.9814C209.07 48.0791 209.168 48.1035 209.29 48.1035H213.608C213.73 48.1035 213.827 48.0546 213.925 47.9814C213.998 47.8836 214.047 47.7859 214.047 47.6638V45.1963Z" fill="#2B2B2B"/>
  <path d="M24.8348 34.7643L21.0291 30.9531L29.5675 22.4025L32.5438 14.5848C32.1535 14.3894 31.7143 14.2672 31.2752 14.2672C30.5433 14.2672 29.8847 14.5604 29.3724 15.049L15.4425 28.9987C14.3935 30.0492 14.3935 31.7593 15.4425 32.8343L22.7855 40.1878L24.8348 34.7643Z" fill="#2B2B2B"/>
  <path d="M47.1324 29.0476L39.7649 21.6697L37.6913 27.1176L41.5214 30.9532L32.9585 39.5282L29.9823 47.2971C30.3726 47.517 30.8361 47.6147 31.2752 47.6147C31.9583 47.6147 32.6658 47.3459 33.1781 46.8329L47.108 32.8832C47.6203 32.3702 47.8886 31.6861 47.8886 30.9776C47.913 30.2447 47.6447 29.5607 47.1324 29.0476Z" fill="#2B2B2B"/>
  <path d="M31.2752 55.3103V49.9844C32.5438 49.9844 33.7391 49.4958 34.6418 48.5919L48.8888 34.3246C49.7915 33.4207 50.2794 32.2236 50.2794 30.9532C50.2794 29.6828 49.7915 28.4858 48.8888 27.5818L39.2525 17.9319C39.2282 17.9074 39.2038 17.883 39.155 17.9074C39.0818 17.9319 39.0818 17.9563 39.0818 17.9807L28.4453 45.8313C27.7866 47.5658 26.3229 48.8118 24.5176 49.2027C22.7123 49.5936 20.8583 49.0317 19.5409 47.7369L9.92903 38.1113C8.02618 36.2057 6.97717 33.665 6.97717 30.9777C6.97717 28.2903 8.02618 25.7496 9.92903 23.844L24.1517 9.55226C26.0545 7.64669 28.5917 6.59619 31.2752 6.59619V11.922C30.0066 11.922 28.8112 12.4106 27.9086 13.3145L13.6616 27.5818C12.7589 28.4858 12.271 29.6828 12.271 30.9532C12.271 32.2236 12.7589 33.4207 13.6616 34.3246L23.2734 43.9502C23.2978 43.9746 23.3222 43.999 23.371 43.9746C23.4442 43.9502 23.4442 43.9257 23.4442 43.9013L34.0807 16.0507C34.7394 14.3162 36.2031 13.0702 38.0084 12.6793C39.8137 12.2885 41.6677 12.8504 42.9851 14.1452L52.6213 23.7951C54.5242 25.7007 55.5732 28.2415 55.5732 30.9288C55.5732 33.6161 54.5242 36.1569 52.6213 38.0624L38.3743 52.3298C36.4958 54.2598 33.9587 55.3103 31.2752 55.3103Z" fill="url(#paint8_linear_1_195)"/>
  <defs>
    <linearGradient id="paint0_linear_1_195" x1="80.7744" y1="29.5373" x2="80.7744" y2="22.9172" gradientUnits="userSpaceOnUse">
      <stop offset="0.0849161" stop-color="#FCB503"/>
      <stop offset="0.4999" stop-color="#FDC221"/>
      <stop offset="1" stop-color="#FFD041"/>
    </linearGradient>
    <linearGradient id="paint1_linear_1_195" x1="93.5108" y1="29.5237" x2="93.5108" y2="22.8401" gradientUnits="userSpaceOnUse">
      <stop offset="0.0849161" stop-color="#FCB503"/>
      <stop offset="0.4999" stop-color="#FDC221"/>
      <stop offset="1" stop-color="#FFD041"/>
    </linearGradient>
    <linearGradient id="paint2_linear_1_195" x1="106.1" y1="29.5238" x2="106.1" y2="22.8402" gradientUnits="userSpaceOnUse">
      <stop offset="0.0849161" stop-color="#FCB503"/>
      <stop offset="0.4999" stop-color="#FDC221"/>
      <stop offset="1" stop-color="#FFD041"/>
    </linearGradient>
    <linearGradient id="paint3_linear_1_195" x1="118.691" y1="29.5237" x2="118.691" y2="22.8401" gradientUnits="userSpaceOnUse">
      <stop offset="0.0849161" stop-color="#FCB503"/>
      <stop offset="0.4999" stop-color="#FDC221"/>
      <stop offset="1" stop-color="#FFD041"/>
    </linearGradient>
    <linearGradient id="paint4_linear_1_195" x1="131.28" y1="29.5237" x2="131.28" y2="22.8401" gradientUnits="userSpaceOnUse">
      <stop offset="0.0849161" stop-color="#FCB503"/>
      <stop offset="0.4999" stop-color="#FDC221"/>
      <stop offset="1" stop-color="#FFD041"/>
    </linearGradient>
    <linearGradient id="paint5_linear_1_195" x1="139.767" y1="29.5237" x2="139.767" y2="22.8401" gradientUnits="userSpaceOnUse">
      <stop offset="0.0849161" stop-color="#FCB503"/>
      <stop offset="0.4999" stop-color="#FDC221"/>
      <stop offset="1" stop-color="#FFD041"/>
    </linearGradient>
    <linearGradient id="paint6_linear_1_195" x1="148.265" y1="29.5271" x2="148.265" y2="22.8401" gradientUnits="userSpaceOnUse">
      <stop offset="0.0849161" stop-color="#FCB503"/>
      <stop offset="0.4999" stop-color="#FDC221"/>
      <stop offset="1" stop-color="#FFD041"/>
    </linearGradient>
    <linearGradient id="paint7_linear_1_195" x1="160.863" y1="29.5238" x2="160.863" y2="22.8402" gradientUnits="userSpaceOnUse">
      <stop offset="0.0849161" stop-color="#FCB503"/>
      <stop offset="0.4999" stop-color="#FDC221"/>
      <stop offset="1" stop-color="#FFD041"/>
    </linearGradient>
    <linearGradient id="paint8_linear_1_195" x1="20.7424" y1="49.2261" x2="41.8537" y2="12.7122" gradientUnits="userSpaceOnUse">
      <stop offset="0.0849161" stop-color="#FCB503"/>
      <stop offset="0.4999" stop-color="#FDC221"/>
      <stop offset="1" stop-color="#FFD041"/>
    </linearGradient>
  </defs>
</svg>
