<svg aria-hidden="true" xmlns="http://www.w3.org/2000/svg" style="position:absolute;width:0;height:0;overflow:hidden">

  <symbol fill="none" viewBox="0 0 24 25" id="be">
    <path fill-rule="evenodd" clip-rule="evenodd" d="M9.62649 12.972C9.91899 12.972 10.5625 13.0847 10.5625 13.921C10.5625 14.7563 9.74295 14.8013 9.62649 14.8013H8.27991V12.972H9.62649Z" fill="#F5F5F5"></path>
    <path fill-rule="evenodd" clip-rule="evenodd" d="M10.1936 10.8638C10.1936 11.4851 9.64163 11.5902 9.47588 11.5902H8.26038V10.1981H9.36538C9.47533 10.1981 10.1936 10.242 10.1936 10.8638Z" fill="#F5F5F5"></path>
    <path fill-rule="evenodd" clip-rule="evenodd" d="M15.6807 11.4169C16.1081 11.4202 16.3643 11.5214 16.5652 11.6959C16.7667 11.8703 16.887 12.1492 16.9271 12.4986H14.3547C14.3379 11.9353 14.9852 11.412 15.6807 11.4169Z" fill="#F5F5F5"></path>
    <path fill-rule="evenodd" clip-rule="evenodd" d="M18.7341 0.583374C21.5502 0.583374 23.8333 2.8665 23.8333 5.68262V19.3175C23.8333 22.1336 21.5502 24.4167 18.7341 24.4167H5.09925C2.28312 24.4167 0 22.1336 0 19.3175V5.68262C0 2.8665 2.28312 0.583374 5.09925 0.583374H18.7341ZM14.2594 8.30212C13.9972 8.30212 13.7854 8.51446 13.7854 8.77608C13.7854 9.03771 13.9972 9.25004 14.2594 9.25004H17.1031C17.3653 9.25004 17.5771 9.03771 17.5771 8.77608C17.5771 8.51446 17.3653 8.30212 17.1031 8.30212H14.2594ZM9.94608 16.1666C10.2418 16.166 12.4583 16.0783 12.4583 14.0346C12.4583 12.7162 11.6453 12.2845 11.2022 12.1322C11.4974 11.98 11.992 11.5971 11.992 10.5728C11.992 8.64608 10.1671 8.70837 9.79821 8.70837H6.39871V16.1666H9.94608ZM18.4113 13.9479C18.4692 12.3072 18.1225 10.198 15.6379 10.198C14.9348 10.198 12.8646 10.523 12.8646 13.2448C12.8646 15.7636 14.7783 16.2917 15.7159 16.2917C17.1373 16.2917 18.0749 15.2929 18.3349 14.417H16.8643C16.6546 14.6477 16.3063 14.9191 15.568 14.8427C14.6488 14.7474 14.4029 13.8959 14.4029 13.8959L17.173 13.9479H18.4113Z" fill="#F5F5F5"></path>
  </symbol>
  <symbol fill="none" viewBox="0 0 24 25" id="instagram">
    <path d="M6.99844 0.5C3.13972 0.5 0 3.64157 0 7.50125V17.5006C0 21.3598 3.14157 24.5 7.00125 24.5H17.0006C20.8598 24.5 24 21.3584 24 17.4987V7.49844C24 3.63972 20.8584 0.5 16.9987 0.5H6.99844ZM19.2 4.34C19.7299 4.34 20.16 4.77008 20.16 5.3C20.16 5.82992 19.7299 6.26 19.2 6.26C18.6701 6.26 18.24 5.82992 18.24 5.3C18.24 4.77008 18.6701 4.34 19.2 4.34ZM12 6.26C15.4416 6.26 18.24 9.0584 18.24 12.5C18.24 15.9416 15.4411 18.74 12 18.74C8.5584 18.74 5.76 15.9411 5.76 12.5C5.76 9.05888 8.5584 6.26 12 6.26ZM12 8.18C9.61392 8.18 7.68 10.1139 7.68 12.5C7.68 14.8861 9.61392 16.82 12 16.82C14.3861 16.82 16.32 14.8861 16.32 12.5C16.32 10.1139 14.3861 8.18 12 8.18Z" fill="#F5F5F5"></path>
  </symbol>
  <symbol fill="none" viewBox="0 0 25 25" id="whatsapp">
    <path d="M12.5 1C6.15901 1 1.00001 6.159 1.00001 12.5C1.00001 14.48 1.51151 16.427 2.48151 18.145L1.01851 23.365C0.970513 23.5365 1.01701 23.7205 1.14101 23.848C1.23651 23.9465 1.36651 24 1.50001 24C1.54001 24 1.58051 23.995 1.62001 23.9855L7.06801 22.636C8.73151 23.529 10.605 24 12.5 24C18.841 24 24 18.841 24 12.5C24 6.159 18.841 1 12.5 1ZM18.285 16.558C18.039 17.239 16.859 17.8605 16.292 17.944C15.783 18.0185 15.139 18.0505 14.432 17.8285C14.0035 17.6935 13.4535 17.5145 12.749 17.214C9.78751 15.951 7.85351 13.0065 7.70551 12.812C7.55801 12.6175 6.50001 11.2315 6.50001 9.797C6.50001 8.3625 7.26251 7.657 7.53351 7.365C7.80451 7.073 8.12401 7 8.32101 7C8.51801 7 8.71451 7.0025 8.88701 7.0105C9.06851 7.0195 9.31201 6.942 9.55151 7.511C9.79751 8.095 10.388 9.5295 10.461 9.676C10.535 9.822 10.584 9.9925 10.486 10.187C10.388 10.3815 10.339 10.503 10.191 10.6735C10.043 10.844 9.88101 11.0535 9.74801 11.1845C9.60001 11.33 9.44651 11.4875 9.61851 11.7795C9.79051 12.0715 10.383 13.026 11.261 13.799C12.3885 14.792 13.34 15.1 13.635 15.246C13.93 15.392 14.1025 15.3675 14.2745 15.173C14.4465 14.978 15.0125 14.3215 15.209 14.03C15.4055 13.7385 15.6025 13.7865 15.8735 13.884C16.1445 13.981 17.596 14.686 17.891 14.832C18.186 14.978 18.383 15.051 18.457 15.1725C18.531 15.2935 18.531 15.8775 18.285 16.558Z" fill="#F5F5F5"></path>
  </symbol>
  <symbol  fill="none" viewBox="0 0 25 25" id="telegram">
    <path xmlns="http://www.w3.org/2000/svg" d="M12.5 1C18.8515 1 24 6.1485 24 12.5C24 18.8515 18.8515 24 12.5 24C6.1485 24 1 18.8515 1 12.5C1 6.1485 6.1485 1 12.5 1ZM16.467 17.1875C16.6785 16.5385 17.6695 10.0705 17.792 8.796C17.829 8.41 17.707 8.1535 17.468 8.039C17.179 7.9 16.751 7.9695 16.2545 8.1485C15.5735 8.394 6.8675 12.0905 6.3645 12.3045C5.8875 12.507 5.4365 12.728 5.4365 13.048C5.4365 13.273 5.57 13.3995 5.938 13.531C6.321 13.6675 7.2855 13.96 7.855 14.117C8.4035 14.2685 9.028 14.137 9.378 13.9195C9.749 13.689 14.0305 10.824 14.338 10.573C14.645 10.322 14.89 10.6435 14.639 10.895C14.388 11.146 11.449 13.9985 11.0615 14.3935C10.591 14.873 10.925 15.37 11.2405 15.569C11.601 15.796 14.1935 17.535 14.584 17.814C14.9745 18.093 15.3705 18.2195 15.733 18.2195C16.0955 18.2195 16.2865 17.742 16.467 17.1875Z" fill="#F5F5F5"/>  </symbol>
</svg>
